<svg xmlns="http://www.w3.org/2000/svg" viewBox="0 0 1606 757" preserveAspectRatio="xMidYMid" width="1606" height="757" xmlns:xlink="http://www.w3.org/1999/xlink" style="shape-rendering:auto;display:block;background-position-x:0%;background-position-y:0%;background-size:auto;background-origin:padding-box;background-clip:border-box;background:scroll rgb(12, 12, 12) none  repeat;width:1606px;height:757px;;animation:none"><g><g transform="matrix(0.9659258262890683,0.25881904510252074,-0.25881904510252074,0.9659258262890683,125.32457006118216,-168.44461869661836)" style="transform:matrix(0.965926, 0.258819, -0.258819, 0.965926, 125.325, -168.445);;animation:none"><path d="M -401.5 -75.5 C 0.5 -75.5 401.5 75.5 803.5 75.5 C 1205.5 75.5 1606.5 -75.5 2008.5 -75.5 C 2410.5 -75.5 2811.5 75.5 3213.5 75.5 C 3615.5 75.5 4016.5 -75.5 4418.5 -75.5" fill="none" stroke="rgb(177, 242, 199)" stroke-opacity="0" stroke-width="1.5" transform="matrix(1,0,0,1,0,0)" style="fill:none;stroke:rgb(177, 242, 199);transform:matrix(1, 0, 0, 1, 0, 0);;animation:none"></path></g>
<g transform="matrix(0.9659258262890683,0.25881904510252074,-0.25881904510252074,0.9659258262890683,125.32457006118216,531.1153693252322)" style="transform:matrix(0.965926, 0.258819, -0.258819, 0.965926, 125.325, 531.115);;animation:none"><path d="M -401.5 -75.2048 C 0.5 -75.2048 401.5 75.2048 803.5 75.2048 C 1205.5 75.2048 1606.5 -75.2048 2008.5 -75.2048 C 2410.5 -75.2048 2811.5 75.2048 3213.5 75.2048 C 3615.5 75.2048 4016.5 -75.2048 4418.5 -75.2048" fill="none" stroke="rgb(176, 242, 199)" stroke-opacity="0" stroke-width="1.5" transform="matrix(1,0,0,1,-45.34585952758789,0)" style="fill:none;stroke:rgb(176, 242, 199);transform:matrix(1, 0, 0, 1, -45.3459, 0);;animation:none"></path></g>
<g transform="matrix(0.9659258262890683,0.25881904510252074,-0.25881904510252074,0.9659258262890683,125.32457006118216,-159.53461694185762)" style="transform:matrix(0.965926, 0.258819, -0.258819, 0.965926, 125.325, -159.535);;animation:none"><path d="M -401.5 -74.2772 C 0.5 -74.2772 401.5 74.2772 803.5 74.2772 C 1205.5 74.2772 1606.5 -74.2772 2008.5 -74.2772 C 2410.5 -74.2772 2811.5 74.2772 3213.5 74.2772 C 3615.5 74.2772 4016.5 -74.2772 4418.5 -74.2772" fill="none" stroke="rgb(174, 241, 197)" stroke-opacity="0" stroke-width="1.5" transform="matrix(1,0,0,1,-90.69171905517578,0)" style="fill:none;stroke:rgb(174, 241, 197);transform:matrix(1, 0, 0, 1, -90.6917, 0);;animation:none"></path></g>
<g transform="matrix(0.9659258262890683,0.25881904510252074,-0.25881904510252074,0.9659258262890683,125.32457006118216,522.215405946326)" style="transform:matrix(0.965926, 0.258819, -0.258819, 0.965926, 125.325, 522.215);;animation:none"><path d="M -401.5 -72.6485 C 0.5 -72.6485 401.5 72.6485 803.5 72.6485 C 1205.5 72.6485 1606.5 -72.6485 2008.5 -72.6485 C 2410.5 -72.6485 2811.5 72.6485 3213.5 72.6485 C 3615.5 72.6485 4016.5 -72.6485 4418.5 -72.6485" fill="none" stroke="rgb(169, 239, 194)" stroke-opacity="0" stroke-width="1.5" transform="matrix(1,0,0,1,-136.03758239746094,0)" style="fill:none;stroke:rgb(169, 239, 194);transform:matrix(1, 0, 0, 1, -136.038, 0);;animation:none"></path></g>
<g transform="matrix(0.9659258262890683,0.25881904510252074,-0.25881904510252074,0.9659258262890683,125.32457006118216,-150.6246170944455)" style="transform:matrix(0.965926, 0.258819, -0.258819, 0.965926, 125.325, -150.625);;animation:none"><path d="M -401.5 -70.2419 C 0.5 -70.2419 401.5 70.2419 803.5 70.2419 C 1205.5 70.2419 1606.5 -70.2419 2008.5 -70.2419 C 2410.5 -70.2419 2811.5 70.2419 3213.5 70.2419 C 3615.5 70.2419 4016.5 -70.2419 4418.5 -70.2419" fill="none" stroke="rgb(161, 237, 189)" stroke-opacity="0" stroke-width="1.5" transform="matrix(1,0,0,1,-181.38343811035156,0)" style="fill:none;stroke:rgb(161, 237, 189);transform:matrix(1, 0, 0, 1, -181.383, 0);;animation:none"></path></g>
<g transform="matrix(0.9659258262890683,0.25881904510252074,-0.25881904510252074,0.9659258262890683,125.32457006118216,513.3053717666385)" style="transform:matrix(0.965926, 0.258819, -0.258819, 0.965926, 125.325, 513.305);;animation:none"><path d="M -401.5 -66.9734 C 0.5 -66.9734 401.5 66.9734 803.5 66.9734 C 1205.5 66.9734 1606.5 -66.9734 2008.5 -66.9734 C 2410.5 -66.9734 2811.5 66.9734 3213.5 66.9734 C 3615.5 66.9734 4016.5 -66.9734 4418.5 -66.9734" fill="none" stroke="rgb(151, 234, 183)" stroke-opacity="0" stroke-width="1.5" transform="matrix(1,0,0,1,-226.72940063476562,0)" style="fill:none;stroke:rgb(151, 234, 183);transform:matrix(1, 0, 0, 1, -226.729, 0);;animation:none"></path></g>
<g transform="matrix(0.9659258262890683,0.25881904510252074,-0.25881904510252074,0.9659258262890683,125.32457006118216,-141.72461938326387)" style="transform:matrix(0.965926, 0.258819, -0.258819, 0.965926, 125.325, -141.725);;animation:none"><path d="M -401.5 -62.7541 C 0.5 -62.7541 401.5 62.7541 803.5 62.7541 C 1205.5 62.7541 1606.5 -62.7541 2008.5 -62.7541 C 2410.5 -62.7541 2811.5 62.7541 3213.5 62.7541 C 3615.5 62.7541 4016.5 -62.7541 4418.5 -62.7541" fill="none" stroke="rgb(138, 230, 175)" stroke-opacity="0" stroke-width="1.5" transform="matrix(1,0,0,1,-272.07525634765625,0)" style="fill:none;stroke:rgb(138, 230, 175);transform:matrix(1, 0, 0, 1, -272.075, 0);;animation:none"></path></g>
<g transform="matrix(0.9659258262890683,0.25881904510252074,-0.25881904510252074,0.9659258262890683,125.32457006118216,504.3953986221072)" style="transform:matrix(0.965926, 0.258819, -0.258819, 0.965926, 125.325, 504.395);;animation:none"><path d="M -401.5 -57.4955 C 0.5 -57.4955 401.5 57.4955 803.5 57.4955 C 1205.5 57.4955 1606.5 -57.4955 2008.5 -57.4955 C 2410.5 -57.4955 2811.5 57.4955 3213.5 57.4955 C 3615.5 57.4955 4016.5 -57.4955 4418.5 -57.4955" fill="none" stroke="rgb(124, 225, 166)" stroke-opacity="0" stroke-width="1.5" transform="matrix(1,0,0,1,-317.4211120605469,0)" style="fill:none;stroke:rgb(124, 225, 166);transform:matrix(1, 0, 0, 1, -317.421, 0);;animation:none"></path></g>
<g transform="matrix(0.9659258262890683,0.25881904510252074,-0.25881904510252074,0.9659258262890683,125.32457006118216,-132.81461953585176)" style="transform:matrix(0.965926, 0.258819, -0.258819, 0.965926, 125.325, -132.815);;animation:none"><path d="M -401.5 -51.1192 C 0.5 -51.1192 401.5 51.1192 803.5 51.1192 C 1205.5 51.1192 1606.5 -51.1192 2008.5 -51.1192 C 2410.5 -51.1192 2811.5 51.1192 3213.5 51.1192 C 3615.5 51.1192 4016.5 -51.1192 4418.5 -51.1192" fill="none" stroke="rgb(110, 221, 157)" stroke-opacity="0" stroke-width="1.5" transform="matrix(1,0,0,1,-362.7669677734375,0)" style="fill:none;stroke:rgb(110, 221, 157);transform:matrix(1, 0, 0, 1, -362.767, 0);;animation:none"></path></g>
<g transform="matrix(0.9659258262890683,0.25881904510252074,-0.25881904510252074,0.9659258262890683,125.32457006118216,495.4953742080447)" style="transform:matrix(0.965926, 0.258819, -0.258819, 0.965926, 125.325, 495.495);;animation:none"><path d="M -401.5 -43.5745 C 0.5 -43.5745 401.5 43.5745 803.5 43.5745 C 1205.5 43.5745 1606.5 -43.5745 2008.5 -43.5745 C 2410.5 -43.5745 2811.5 43.5745 3213.5 43.5745 C 3615.5 43.5745 4016.5 -43.5745 4418.5 -43.5745" fill="none" stroke="rgb(99, 218, 150)" stroke-opacity="0" stroke-width="1.5" transform="matrix(1,0,0,1,-408.1129455566406,0)" style="fill:none;stroke:rgb(99, 218, 150);transform:matrix(1, 0, 0, 1, -408.113, 0);;animation:none"></path></g>
<g transform="matrix(0.9659258262890683,0.25881904510252074,-0.25881904510252074,0.9659258262890683,125.32457006118216,-123.91462182467012)" style="transform:matrix(0.965926, 0.258819, -0.258819, 0.965926, 125.325, -123.915);;animation:none"><path d="M -401.5 -34.8636 C 0.5 -34.8636 401.5 34.8636 803.5 34.8636 C 1205.5 34.8636 1606.5 -34.8636 2008.5 -34.8636 C 2410.5 -34.8636 2811.5 34.8636 3213.5 34.8636 C 3615.5 34.8636 4016.5 -34.8636 4418.5 -34.8636" fill="none" stroke="rgb(91, 215, 145)" stroke-opacity="0" stroke-width="1.5" transform="matrix(1,0,0,1,-453.45880126953125,0)" style="fill:none;stroke:rgb(91, 215, 145);transform:matrix(1, 0, 0, 1, -453.459, 0);;animation:none"></path></g>
<g transform="matrix(0.9659258262890683,0.25881904510252074,-0.25881904510252074,0.9659258262890683,125.32457006118216,486.5854010635135)" style="transform:matrix(0.965926, 0.258819, -0.258819, 0.965926, 125.325, 486.585);;animation:none"><path d="M -401.5 -25.0741 C 0.5 -25.0741 401.5 25.0741 803.5 25.0741 C 1205.5 25.0741 1606.5 -25.0741 2008.5 -25.0741 C 2410.5 -25.0741 2811.5 25.0741 3213.5 25.0741 C 3615.5 25.0741 4016.5 -25.0741 4418.5 -25.0741" fill="none" stroke="rgb(85, 213, 142)" stroke-opacity="0" stroke-width="1.5" transform="matrix(1,0,0,1,-498.8046569824219,0)" style="fill:none;stroke:rgb(85, 213, 142);transform:matrix(1, 0, 0, 1, -498.805, 0);;animation:none"></path></g>
<g transform="matrix(0.9659258262890683,0.25881904510252074,-0.25881904510252074,0.9659258262890683,125.32457006118216,-115.00461816256075)" style="transform:matrix(0.965926, 0.258819, -0.258819, 0.965926, 125.325, -115.005);;animation:none"><path d="M -401.5 -14.409 C 0.5 -14.409 401.5 14.409 803.5 14.409 C 1205.5 14.409 1606.5 -14.409 2008.5 -14.409 C 2410.5 -14.409 2811.5 14.409 3213.5 14.409 C 3615.5 14.409 4016.5 -14.409 4418.5 -14.409" fill="none" stroke="rgb(82, 212, 140)" stroke-opacity="0" stroke-width="1.5" transform="matrix(1,0,0,1,-544.1505126953125,0)" style="fill:none;stroke:rgb(82, 212, 140);transform:matrix(1, 0, 0, 1, -544.15, 0);;animation:none"></path></g>
<g transform="matrix(0.9659258262890683,0.25881904510252074,-0.25881904510252074,0.9659258262890683,125.32457006118216,477.685376649451)" style="transform:matrix(0.965926, 0.258819, -0.258819, 0.965926, 125.325, 477.685);;animation:none"><path d="M -401.5 -3.19595 C 0.5 -3.19595 401.5 3.19595 803.5 3.19595 C 1205.5 3.19595 1606.5 -3.19595 2008.5 -3.19595 C 2410.5 -3.19595 2811.5 3.19595 3213.5 3.19595 C 3615.5 3.19595 4016.5 -3.19595 4418.5 -3.19595" fill="none" stroke="rgb(81, 212, 139)" stroke-opacity="0.09090909090909091" stroke-width="1.5" transform="matrix(1,0,0,1,-589.4964599609375,0)" style="fill:none;stroke:rgb(81, 212, 139);transform:matrix(1, 0, 0, 1, -589.496, 0);;animation:none"></path></g>
<g transform="matrix(0.9659258262890683,0.25881904510252074,-0.25881904510252074,0.9659258262890683,125.32457006118216,-106.0946221298459)" style="transform:matrix(0.965926, 0.258819, -0.258819, 0.965926, 125.325, -106.095);;animation:none"><path d="M -401.5 8.14354 C 0.5 8.14354 401.5 -8.14354 803.5 -8.14354 C 1205.5 -8.14354 1606.5 8.14354 2008.5 8.14354 C 2410.5 8.14354 2811.5 -8.14354 3213.5 -8.14354 C 3615.5 -8.14354 4016.5 8.14354 4418.5 8.14354" fill="none" stroke="rgb(81, 212, 139)" stroke-opacity="0.18181818181818182" stroke-width="1.5" transform="matrix(1,0,0,1,-634.84228515625,0)" style="fill:none;stroke:rgb(81, 212, 139);transform:matrix(1, 0, 0, 1, -634.842, 0);;animation:none"></path></g>
<g transform="matrix(0.9659258262890683,0.25881904510252074,-0.25881904510252074,0.9659258262890683,125.32457006118216,468.7754035049197)" style="transform:matrix(0.965926, 0.258819, -0.258819, 0.965926, 125.325, 468.775);;animation:none"><path d="M -401.5 19.1644 C 0.5 19.1644 401.5 -19.1644 803.5 -19.1644 C 1205.5 -19.1644 1606.5 19.1644 2008.5 19.1644 C 2410.5 19.1644 2811.5 -19.1644 3213.5 -19.1644 C 3615.5 -19.1644 4016.5 19.1644 4418.5 19.1644" fill="none" stroke="rgb(80, 210, 138)" stroke-opacity="0.2727272727272727" stroke-width="1.5" transform="matrix(1,0,0,1,-680.1881713867188,0)" style="fill:none;stroke:rgb(80, 210, 138);transform:matrix(1, 0, 0, 1, -680.188, 0);;animation:none"></path></g>
<g transform="matrix(0.9659258262890683,0.25881904510252074,-0.25881904510252074,0.9659258262890683,125.32457006118216,-97.194620603967)" style="transform:matrix(0.965926, 0.258819, -0.258819, 0.965926, 125.325, -97.1946);;animation:none"><path d="M -401.5 29.4796 C 0.5 29.4796 401.5 -29.4796 803.5 -29.4796 C 1205.5 -29.4796 1606.5 29.4796 2008.5 29.4796 C 2410.5 29.4796 2811.5 -29.4796 3213.5 -29.4796 C 3615.5 -29.4796 4016.5 29.4796 4418.5 29.4796" fill="none" stroke="rgb(78, 206, 135)" stroke-opacity="0.36363636363636365" stroke-width="1.5" transform="matrix(1,0,0,1,-725.5339965820312,0)" style="fill:none;stroke:rgb(78, 206, 135);transform:matrix(1, 0, 0, 1, -725.534, 0);;animation:none"></path></g>
<g transform="matrix(0.9659258262890683,0.25881904510252074,-0.25881904510252074,0.9659258262890683,125.32457006118216,459.8653693252322)" style="transform:matrix(0.965926, 0.258819, -0.258819, 0.965926, 125.325, 459.865);;animation:none"><path d="M -401.5 38.8148 C 0.5 38.8148 401.5 -38.8148 803.5 -38.8148 C 1205.5 -38.8148 1606.5 38.8148 2008.5 38.8148 C 2410.5 38.8148 2811.5 -38.8148 3213.5 -38.8148 C 3615.5 -38.8148 4016.5 38.8148 4418.5 38.8148" fill="none" stroke="rgb(76, 200, 131)" stroke-opacity="0.45454545454545453" stroke-width="1.5" transform="matrix(1,0,0,1,-770.8800048828125,0)" style="fill:none;stroke:rgb(76, 200, 131);transform:matrix(1, 0, 0, 1, -770.88, 0);;animation:none"></path></g>
<g transform="matrix(0.9659258262890683,0.25881904510252074,-0.25881904510252074,0.9659258262890683,125.32457006118216,-88.28461694185762)" style="transform:matrix(0.965926, 0.258819, -0.258819, 0.965926, 125.325, -88.2846);;animation:none"><path d="M -401.5 47.0205 C 0.5 47.0205 401.5 -47.0205 803.5 -47.0205 C 1205.5 -47.0205 1606.5 47.0205 2008.5 47.0205 C 2410.5 47.0205 2811.5 -47.0205 3213.5 -47.0205 C 3615.5 -47.0205 4016.5 47.0205 4418.5 47.0205" fill="none" stroke="rgb(72, 191, 125)" stroke-opacity="0.5454545454545454" stroke-width="1.5" transform="matrix(1,0,0,1,-816.2258911132812,0)" style="fill:none;stroke:rgb(72, 191, 125);transform:matrix(1, 0, 0, 1, -816.226, 0);;animation:none"></path></g>
<g transform="matrix(0.9659258262890683,0.25881904510252074,-0.25881904510252074,0.9659258262890683,125.32457006118216,450.965405946326)" style="transform:matrix(0.965926, 0.258819, -0.258819, 0.965926, 125.325, 450.965);;animation:none"><path d="M -401.5 54.0505 C 0.5 54.0505 401.5 -54.0505 803.5 -54.0505 C 1205.5 -54.0505 1606.5 54.0505 2008.5 54.0505 C 2410.5 54.0505 2811.5 -54.0505 3213.5 -54.0505 C 3615.5 -54.0505 4016.5 54.0505 4418.5 54.0505" fill="none" stroke="rgb(68, 180, 118)" stroke-opacity="0.6363636363636364" stroke-width="1.5" transform="matrix(1,0,0,1,-861.5717163085938,0)" style="fill:none;stroke:rgb(68, 180, 118);transform:matrix(1, 0, 0, 1, -861.572, 0);;animation:none"></path></g>
<g transform="matrix(0.9659258262890683,0.25881904510252074,-0.25881904510252074,0.9659258262890683,125.32457006118216,-79.38461541597871)" style="transform:matrix(0.965926, 0.258819, -0.258819, 0.965926, 125.325, -79.3846);;animation:none"><path d="M -401.5 59.9294 C 0.5 59.9294 401.5 -59.9294 803.5 -59.9294 C 1205.5 -59.9294 1606.5 59.9294 2008.5 59.9294 C 2410.5 59.9294 2811.5 -59.9294 3213.5 -59.9294 C 3615.5 -59.9294 4016.5 59.9294 4418.5 59.9294" fill="none" stroke="rgb(62, 167, 109)" stroke-opacity="0.7272727272727273" stroke-width="1.5" transform="matrix(1,0,0,1,-906.9176025390625,0)" style="fill:none;stroke:rgb(62, 167, 109);transform:matrix(1, 0, 0, 1, -906.918, 0);;animation:none"></path></g>
<g transform="matrix(0.9659258262890683,0.25881904510252074,-0.25881904510252074,0.9659258262890683,125.32457006118216,442.0553717666385)" style="transform:matrix(0.965926, 0.258819, -0.258819, 0.965926, 125.325, 442.055);;animation:none"><path d="M -401.5 64.7228 C 0.5 64.7228 401.5 -64.7228 803.5 -64.7228 C 1205.5 -64.7228 1606.5 64.7228 2008.5 64.7228 C 2410.5 64.7228 2811.5 -64.7228 3213.5 -64.7228 C 3615.5 -64.7228 4016.5 64.7228 4418.5 64.7228" fill="none" stroke="rgb(57, 154, 100)" stroke-opacity="0.8181818181818182" stroke-width="1.5" transform="matrix(1,0,0,1,-952.263427734375,0)" style="fill:none;stroke:rgb(57, 154, 100);transform:matrix(1, 0, 0, 1, -952.263, 0);;animation:none"></path></g>
<g transform="matrix(0.9659258262890683,0.25881904510252074,-0.25881904510252074,0.9659258262890683,125.32457006118216,-70.47461938326387)" style="transform:matrix(0.965926, 0.258819, -0.258819, 0.965926, 125.325, -70.4746);;animation:none"><path d="M -401.5 68.5151 C 0.5 68.5151 401.5 -68.5151 803.5 -68.5151 C 1205.5 -68.5151 1606.5 68.5151 2008.5 68.5151 C 2410.5 68.5151 2811.5 -68.5151 3213.5 -68.5151 C 3615.5 -68.5151 4016.5 68.5151 4418.5 68.5151" fill="none" stroke="rgb(52, 143, 93)" stroke-opacity="0.9090909090909091" stroke-width="1.5" transform="matrix(1,0,0,1,-997.609375,0)" style="fill:none;stroke:rgb(52, 143, 93);transform:matrix(1, 0, 0, 1, -997.609, 0);;animation:none"></path></g>
<g transform="matrix(0.9659258262890683,0.25881904510252074,-0.25881904510252074,0.9659258262890683,125.32457006118216,433.1554083877322)" style="transform:matrix(0.965926, 0.258819, -0.258819, 0.965926, 125.325, 433.155);;animation:none"><path d="M -401.5 71.3958 C 0.5 71.3958 401.5 -71.3958 803.5 -71.3958 C 1205.5 -71.3958 1606.5 71.3958 2008.5 71.3958 C 2410.5 71.3958 2811.5 -71.3958 3213.5 -71.3958 C 3615.5 -71.3958 4016.5 71.3958 4418.5 71.3958" fill="none" stroke="rgb(49, 135, 87)" stroke-opacity="1" stroke-width="1.5" transform="matrix(1,0,0,1,-1042.955322265625,0)" style="fill:none;stroke:rgb(49, 135, 87);transform:matrix(1, 0, 0, 1, -1042.96, 0);;animation:none"></path></g>
<g transform="matrix(0.9659258262890683,0.25881904510252074,-0.25881904510252074,0.9659258262890683,125.32457006118216,-61.56462335054903)" style="transform:matrix(0.965926, 0.258819, -0.258819, 0.965926, 125.325, -61.5646);;animation:none"><path d="M -401.5 73.4521 C 0.5 73.4521 401.5 -73.4521 803.5 -73.4521 C 1205.5 -73.4521 1606.5 73.4521 2008.5 73.4521 C 2410.5 73.4521 2811.5 -73.4521 3213.5 -73.4521 C 3615.5 -73.4521 4016.5 73.4521 4418.5 73.4521" fill="none" stroke="rgb(46, 129, 84)" stroke-opacity="1.0909090909090908" stroke-width="1.5" transform="matrix(1,0,0,1,-1088.3011474609375,0)" style="fill:none;stroke:rgb(46, 129, 84);transform:matrix(1, 0, 0, 1, -1088.3, 0);;animation:none"></path></g>
<g transform="matrix(0.9659258262890683,0.25881904510252074,-0.25881904510252074,0.9659258262890683,125.32457006118216,424.2453742080447)" style="transform:matrix(0.965926, 0.258819, -0.258819, 0.965926, 125.325, 424.245);;animation:none"><path d="M -401.5 74.7651 C 0.5 74.7651 401.5 -74.7651 803.5 -74.7651 C 1205.5 -74.7651 1606.5 74.7651 2008.5 74.7651 C 2410.5 74.7651 2811.5 -74.7651 3213.5 -74.7651 C 3615.5 -74.7651 4016.5 74.7651 4418.5 74.7651" fill="none" stroke="rgb(45, 126, 81)" stroke-opacity="1.1818181818181819" stroke-width="1.5" transform="matrix(1,0,0,1,-1133.64697265625,0)" style="fill:none;stroke:rgb(45, 126, 81);transform:matrix(1, 0, 0, 1, -1133.65, 0);;animation:none"></path></g>
<g transform="matrix(0.9659258262890683,0.25881904510252074,-0.25881904510252074,0.9659258262890683,125.32457006118216,-52.66461419527559)" style="transform:matrix(0.965926, 0.258819, -0.258819, 0.965926, 125.325, -52.6646);;animation:none"><path d="M -401.5 75.408 C 0.5 75.408 401.5 -75.408 803.5 -75.408 C 1205.5 -75.408 1606.5 75.408 2008.5 75.408 C 2410.5 75.408 2811.5 -75.408 3213.5 -75.408 C 3615.5 -75.408 4016.5 75.408 4418.5 75.408" fill="none" stroke="rgb(44, 124, 80)" stroke-opacity="1.2727272727272727" stroke-width="1.5" transform="matrix(1,0,0,1,-1178.992919921875,0)" style="fill:none;stroke:rgb(44, 124, 80);transform:matrix(1, 0, 0, 1, -1178.99, 0);;animation:none"></path></g>
<g transform="matrix(0.9659258262890683,0.25881904510252074,-0.25881904510252074,0.9659258262890683,125.32457006118216,415.3454108291385)" style="transform:matrix(0.965926, 0.258819, -0.258819, 0.965926, 125.325, 415.345);;animation:none"><path d="M -401.5 75.4446 C 0.5 75.4446 401.5 -75.4446 803.5 -75.4446 C 1205.5 -75.4446 1606.5 75.4446 2008.5 75.4446 C 2410.5 75.4446 2811.5 -75.4446 3213.5 -75.4446 C 3615.5 -75.4446 4016.5 75.4446 4418.5 75.4446" fill="none" stroke="rgb(44, 124, 80)" stroke-opacity="1.3636363636363635" stroke-width="1.5" transform="matrix(1,0,0,1,-1224.3387451171875,0)" style="fill:none;stroke:rgb(44, 124, 80);transform:matrix(1, 0, 0, 1, -1224.34, 0);;animation:none"></path></g>
<g transform="matrix(0.9659258262890683,0.25881904510252074,-0.25881904510252074,0.9659258262890683,125.32457006118216,-43.75462579195528)" style="transform:matrix(0.965926, 0.258819, -0.258819, 0.965926, 125.325, -43.7546);;animation:none"><path d="M -401.5 74.8807 C 0.5 74.8807 401.5 -74.8807 803.5 -74.8807 C 1205.5 -74.8807 1606.5 74.8807 2008.5 74.8807 C 2410.5 74.8807 2811.5 -74.8807 3213.5 -74.8807 C 3615.5 -74.8807 4016.5 74.8807 4418.5 74.8807" fill="none" stroke="rgb(44, 123, 79)" stroke-opacity="1.4545454545454546" stroke-width="1.5" transform="matrix(1,0,0,1,-1269.6845703125,0)" style="fill:none;stroke:rgb(44, 123, 79);transform:matrix(1, 0, 0, 1, -1269.68, 0);;animation:none"></path></g>
<g transform="matrix(0.9659258262890683,0.25881904510252074,-0.25881904510252074,0.9659258262890683,125.32457006118216,406.435376649451)" style="transform:matrix(0.965926, 0.258819, -0.258819, 0.965926, 125.325, 406.435);;animation:none"><path d="M -401.5 73.6553 C 0.5 73.6553 401.5 -73.6553 803.5 -73.6553 C 1205.5 -73.6553 1606.5 73.6553 2008.5 73.6553 C 2410.5 73.6553 2811.5 -73.6553 3213.5 -73.6553 C 3615.5 -73.6553 4016.5 73.6553 4418.5 73.6553" fill="none" stroke="rgb(43, 121, 78)" stroke-opacity="1.5454545454545454" stroke-width="1.5" transform="matrix(1,0,0,1,-1315.030517578125,0)" style="fill:none;stroke:rgb(43, 121, 78);transform:matrix(1, 0, 0, 1, -1315.03, 0);;animation:none"></path></g>
<g transform="matrix(0.9659258262890683,0.25881904510252074,-0.25881904510252074,0.9659258262890683,125.32457006118216,-34.85461663668184)" style="transform:matrix(0.965926, 0.258819, -0.258819, 0.965926, 125.325, -34.8546);;animation:none"><path d="M -401.5 71.6961 C 0.5 71.6961 401.5 -71.6961 803.5 -71.6961 C 1205.5 -71.6961 1606.5 71.6961 2008.5 71.6961 C 2410.5 71.6961 2811.5 -71.6961 3213.5 -71.6961 C 3615.5 -71.6961 4016.5 71.6961 4418.5 71.6961" fill="none" stroke="rgb(41, 117, 75)" stroke-opacity="1.6363636363636365" stroke-width="1.5" transform="matrix(1,0,0,1,-1360.3765869140625,0)" style="fill:none;stroke:rgb(41, 117, 75);transform:matrix(1, 0, 0, 1, -1360.38, 0);;animation:none"></path></g>
<g transform="matrix(0.9659258262890683,0.25881904510252074,-0.25881904510252074,0.9659258262890683,125.32457006118216,397.5254035049197)" style="transform:matrix(0.965926, 0.258819, -0.258819, 0.965926, 125.325, 397.525);;animation:none"><path d="M -401.5 68.9232 C 0.5 68.9232 401.5 -68.9232 803.5 -68.9232 C 1205.5 -68.9232 1606.5 68.9232 2008.5 68.9232 C 2410.5 68.9232 2811.5 -68.9232 3213.5 -68.9232 C 3615.5 -68.9232 4016.5 68.9232 4418.5 68.9232" fill="none" stroke="rgb(39, 111, 71)" stroke-opacity="1.7272727272727273" stroke-width="1.5" transform="matrix(1,0,0,1,-1405.722412109375,0)" style="fill:none;stroke:rgb(39, 111, 71);transform:matrix(1, 0, 0, 1, -1405.72, 0);;animation:none"></path></g>
<g transform="matrix(0.9659258262890683,0.25881904510252074,-0.25881904510252074,0.9659258262890683,125.32457006118216,-25.944612974572465)" style="transform:matrix(0.965926, 0.258819, -0.258819, 0.965926, 125.325, -25.9446);;animation:none"><path d="M -401.5 65.2498 C 0.5 65.2498 401.5 -65.2498 803.5 -65.2498 C 1205.5 -65.2498 1606.5 65.2498 2008.5 65.2498 C 2410.5 65.2498 2811.5 -65.2498 3213.5 -65.2498 C 3615.5 -65.2498 4016.5 65.2498 4418.5 65.2498" fill="none" stroke="rgb(36, 103, 66)" stroke-opacity="1.8181818181818181" stroke-width="1.5" transform="matrix(1,0,0,1,-1451.0682373046875,0)" style="fill:none;stroke:rgb(36, 103, 66);transform:matrix(1, 0, 0, 1, -1451.07, 0);;animation:none"></path></g>
<g transform="matrix(0.9659258262890683,0.25881904510252074,-0.25881904510252074,0.9659258262890683,125.32457006118216,388.6253790908572)" style="transform:matrix(0.965926, 0.258819, -0.258819, 0.965926, 125.325, 388.625);;animation:none"><path d="M -401.5 60.5864 C 0.5 60.5864 401.5 -60.5864 803.5 -60.5864 C 1205.5 -60.5864 1606.5 60.5864 2008.5 60.5864 C 2410.5 60.5864 2811.5 -60.5864 3213.5 -60.5864 C 3615.5 -60.5864 4016.5 60.5864 4418.5 60.5864" fill="none" stroke="rgb(32, 93, 59)" stroke-opacity="1.9090909090909092" stroke-width="1.5" transform="matrix(1,0,0,1,-1496.4139404296875,0)" style="fill:none;stroke:rgb(32, 93, 59);transform:matrix(1, 0, 0, 1, -1496.41, 0);;animation:none"></path></g>
<g></g></g><!-- [ldio] generated by https://loading.io --></svg>